<svg xmlns="http://www.w3.org/2000/svg" viewBox="0 0 1600 900">
  <defs>
    <linearGradient id="wall" x1="0" y1="0" x2="0" y2="1">
      <stop offset="0%" stop-color="#f5f5f5" />
      <stop offset="100%" stop-color="#d7ccc8" />
    </linearGradient>
    <linearGradient id="floor" x1="0" y1="0" x2="1" y2="0">
      <stop offset="0%" stop-color="#d7ccc8" />
      <stop offset="100%" stop-color="#b0a296" />
    </linearGradient>
    <linearGradient id="bar" x1="0" y1="0" x2="0" y2="1">
      <stop offset="0%" stop-color="#fafafa" />
      <stop offset="100%" stop-color="#cfd8dc" />
    </linearGradient>
    <linearGradient id="fire" x1="0" y1="0" x2="1" y2="1">
      <stop offset="0%" stop-color="#ffb74d" />
      <stop offset="100%" stop-color="#f4511e" />
    </linearGradient>
  </defs>
  <rect width="1600" height="560" fill="url(#wall)" />
  <rect y="560" width="1600" height="340" fill="url(#floor)" />
  <g transform="translate(220 220)">
    <rect x="0" y="0" width="520" height="260" rx="24" fill="#37474f" />
    <rect x="40" y="40" width="440" height="140" rx="18" fill="#263238" />
    <rect x="360" y="60" width="80" height="120" rx="12" fill="#455a64" />
    <rect x="60" y="200" width="400" height="20" rx="10" fill="#90a4ae" />
    <rect x="80" y="220" width="360" height="20" rx="10" fill="#eceff1" />
    <rect x="260" y="120" width="120" height="70" rx="12" fill="url(#fire)" opacity="0.85" />
  </g>
  <g transform="translate(820 260)">
    <rect x="0" y="0" width="520" height="320" rx="28" fill="url(#bar)" />
    <rect x="40" y="40" width="440" height="140" rx="18" fill="#b0bec5" />
    <rect x="60" y="180" width="400" height="40" rx="18" fill="#90a4ae" />
    <rect x="60" y="240" width="400" height="40" rx="18" fill="#78909c" />
  </g>
  <g transform="translate(280 540)" fill="#795548" opacity="0.85">
    <rect x="0" y="0" width="1000" height="40" rx="12" />
    <rect x="80" y="40" width="840" height="20" rx="10" />
  </g>
  <g transform="translate(340 580)">
    <rect x="0" y="0" width="160" height="220" rx="24" fill="#d7ccc8" />
    <rect x="20" y="40" width="120" height="160" rx="18" fill="#a1887f" />
  </g>
  <g transform="translate(520 580)">
    <rect x="0" y="0" width="160" height="220" rx="24" fill="#d7ccc8" />
    <rect x="20" y="40" width="120" height="160" rx="18" fill="#a1887f" />
  </g>
  <g transform="translate(1000 580)">
    <rect x="0" y="0" width="160" height="220" rx="24" fill="#d7ccc8" />
    <rect x="20" y="40" width="120" height="160" rx="18" fill="#a1887f" />
  </g>
  <g transform="translate(1180 580)">
    <rect x="0" y="0" width="160" height="220" rx="24" fill="#d7ccc8" />
    <rect x="20" y="40" width="120" height="160" rx="18" fill="#a1887f" />
  </g>
  <g transform="translate(680 600)">
    <rect x="0" y="0" width="240" height="180" rx="28" fill="#ffccbc" />
    <rect x="30" y="40" width="180" height="40" rx="18" fill="#ffab91" />
    <rect x="30" y="100" width="180" height="40" rx="18" fill="#ff7043" />
  </g>
  <g transform="translate(1260 180)">
    <rect x="0" y="0" width="160" height="320" rx="22" fill="#90a4ae" />
    <rect x="30" y="40" width="100" height="220" rx="16" fill="#eceff1" />
    <rect x="50" y="80" width="60" height="140" rx="12" fill="#b0bec5" />
  </g>
</svg>
