<svg xmlns="http://www.w3.org/2000/svg" viewBox="0 0 1600 900">
  <defs>
    <linearGradient id="sunset" x1="0" y1="0" x2="0" y2="1">
      <stop offset="0%" stop-color="#ffecd2" />
      <stop offset="100%" stop-color="#fcb69f" />
    </linearGradient>
    <linearGradient id="grass" x1="0" y1="0" x2="0" y2="1">
      <stop offset="0%" stop-color="#8bc34a" />
      <stop offset="100%" stop-color="#5a9216" />
    </linearGradient>
    <linearGradient id="drape" x1="0" y1="0" x2="1" y2="0">
      <stop offset="0%" stop-color="#ffffff" stop-opacity="0.95" />
      <stop offset="100%" stop-color="#e0f2f1" stop-opacity="0.75" />
    </linearGradient>
  </defs>
  <rect width="1600" height="520" fill="url(#sunset)" />
  <rect y="520" width="1600" height="380" fill="url(#grass)" />
  <g fill="#263238" opacity="0.08">
    <circle cx="220" cy="180" r="60" />
    <circle cx="380" cy="240" r="40" />
    <circle cx="1420" cy="200" r="70" />
  </g>
  <g transform="translate(200 280)">
    <rect x="0" y="0" width="1200" height="360" rx="28" fill="rgba(255,255,255,0.65)" />
    <rect x="120" y="40" width="960" height="200" fill="#eceff1" rx="18" />
    <rect x="140" y="60" width="320" height="160" fill="#cfd8dc" rx="14" />
    <rect x="540" y="60" width="320" height="160" fill="#cfd8dc" rx="14" />
  </g>
  <g transform="translate(180 220)">
    <rect width="40" height="520" rx="16" fill="#37474f" />
    <rect x="1200" width="40" height="520" rx="16" fill="#37474f" />
    <rect x="600" width="40" height="520" rx="16" fill="#37474f" />
  </g>
  <g transform="translate(220 220)" opacity="0.92">
    <path d="M0 0h160c40 120 40 240 0 360H0z" fill="url(#drape)" />
    <path d="M1180 0h160c-40 120-40 240 0 360h-160z" fill="url(#drape)" />
    <path d="M580 0h160c-32 120-32 240 0 360h-160z" fill="url(#drape)" />
  </g>
  <g transform="translate(260 520)">
    <rect x="0" y="0" width="300" height="160" rx="32" fill="#ffffff" opacity="0.88" />
    <rect x="40" y="100" width="220" height="24" rx="12" fill="#bdbdbd" />
    <rect x="40" y="52" width="220" height="32" rx="16" fill="#607d8b" />
  </g>
  <g transform="translate(1040 520)">
    <rect x="0" y="0" width="300" height="160" rx="32" fill="#ffffff" opacity="0.88" />
    <rect x="40" y="100" width="220" height="24" rx="12" fill="#bdbdbd" />
    <rect x="40" y="52" width="220" height="32" rx="16" fill="#607d8b" />
  </g>
  <g transform="translate(640 640)" fill="#ffffff" opacity="0.9">
    <rect x="0" y="0" width="320" height="80" rx="24" />
    <rect x="20" y="20" width="280" height="40" rx="16" fill="#aed581" />
  </g>
</svg>
