<svg xmlns="http://www.w3.org/2000/svg" viewBox="0 0 1600 900">
  <defs>
    <linearGradient id="skyPatio" x1="0" y1="0" x2="0" y2="1">
      <stop offset="0%" stop-color="#d2f1ff" />
      <stop offset="100%" stop-color="#f1fcff" />
    </linearGradient>
    <linearGradient id="grassPatio" x1="0" y1="0" x2="0" y2="1">
      <stop offset="0%" stop-color="#9ccc65" />
      <stop offset="100%" stop-color="#66bb6a" />
    </linearGradient>
    <linearGradient id="roof" x1="0" y1="0" x2="1" y2="0">
      <stop offset="0%" stop-color="#795548" />
      <stop offset="100%" stop-color="#5d4037" />
    </linearGradient>
    <linearGradient id="sofa" x1="0" y1="0" x2="1" y2="0">
      <stop offset="0%" stop-color="#fbe9e7" />
      <stop offset="100%" stop-color="#f3bda6" />
    </linearGradient>
  </defs>
  <rect width="1600" height="520" fill="url(#skyPatio)" />
  <rect y="520" width="1600" height="380" fill="url(#grassPatio)" />
  <g transform="translate(180 280)">
    <rect x="0" y="0" width="1240" height="420" rx="28" fill="#ffffff" opacity="0.9" />
    <rect x="0" y="0" width="1240" height="120" rx="28" fill="url(#roof)" />
    <rect x="60" y="160" width="1120" height="200" rx="22" fill="#eceff1" />
  </g>
  <g transform="translate(260 360)">
    <rect x="0" y="0" width="220" height="160" rx="24" fill="url(#sofa)" />
    <rect x="260" y="0" width="220" height="160" rx="24" fill="url(#sofa)" />
    <rect x="520" y="0" width="220" height="160" rx="24" fill="url(#sofa)" />
    <rect x="780" y="0" width="220" height="160" rx="24" fill="url(#sofa)" />
  </g>
  <g transform="translate(280 470)" opacity="0.6">
    <rect x="0" y="0" width="960" height="16" rx="8" fill="#a1887f" />
    <rect x="0" y="40" width="960" height="16" rx="8" fill="#a1887f" />
  </g>
  <g transform="translate(540 520)">
    <rect x="0" y="0" width="520" height="200" rx="32" fill="#ffffff" opacity="0.85" />
    <rect x="40" y="40" width="440" height="120" rx="24" fill="#ffe0b2" />
    <rect x="140" y="80" width="240" height="40" rx="18" fill="#ffb74d" />
  </g>
  <g transform="translate(260 220)" fill="#8d6e63" opacity="0.25">
    <rect x="0" y="0" width="40" height="260" rx="16" />
    <rect x="340" y="0" width="40" height="260" rx="16" />
    <rect x="680" y="0" width="40" height="260" rx="16" />
    <rect x="1020" y="0" width="40" height="260" rx="16" />
  </g>
  <g transform="translate(1080 300)">
    <circle cx="160" cy="160" r="120" fill="#ffcc80" opacity="0.6" />
    <circle cx="80" cy="120" r="60" fill="#ffe082" opacity="0.7" />
  </g>
</svg>
